<mxfile host="Electron" agent="Mozilla/5.0 (Windows NT 10.0; Win64; x64) AppleWebKit/537.36 (KHTML, like Gecko) draw.io/26.0.16 Chrome/132.0.6834.196 Electron/34.2.0 Safari/537.36" version="26.0.16">
  <diagram name="Page-1" id="0783ab3e-0a74-02c8-0abd-f7b4e66b4bec">
    <mxGraphModel dx="1151" dy="673" grid="1" gridSize="10" guides="1" tooltips="1" connect="1" arrows="1" fold="1" page="1" pageScale="1" pageWidth="850" pageHeight="1100" background="none" math="0" shadow="0">
      <root>
        <mxCell id="0" />
        <mxCell id="1" parent="0" />
        <mxCell id="1c1d494c118603dd-1" value="Nạp tiền điện thoại" style="swimlane;html=1;childLayout=stackLayout;startSize=20;rounded=0;shadow=0;comic=0;labelBackgroundColor=none;strokeWidth=1;fontFamily=Verdana;fontSize=12;align=center;" parent="1" vertex="1">
          <mxGeometry x="30" y="30" width="811.5" height="1070" as="geometry" />
        </mxCell>
        <mxCell id="1c1d494c118603dd-2" value="Khách hàng" style="swimlane;html=1;startSize=20;" parent="1c1d494c118603dd-1" vertex="1">
          <mxGeometry y="20" width="400" height="1050" as="geometry" />
        </mxCell>
        <mxCell id="60571a20871a0731-4" value="" style="ellipse;whiteSpace=wrap;html=1;rounded=0;shadow=0;comic=0;labelBackgroundColor=none;strokeWidth=1;fillColor=#000000;fontFamily=Verdana;fontSize=12;align=center;" parent="1c1d494c118603dd-2" vertex="1">
          <mxGeometry x="20" y="50" width="40" height="40" as="geometry" />
        </mxCell>
        <mxCell id="60571a20871a0731-8" value="Đăng nhập" style="rounded=1;whiteSpace=wrap;html=1;shadow=0;comic=0;labelBackgroundColor=none;strokeWidth=1;fontFamily=Verdana;fontSize=12;align=center;arcSize=50;" parent="1c1d494c118603dd-2" vertex="1">
          <mxGeometry x="105" y="57.5" width="100" height="25" as="geometry" />
        </mxCell>
        <mxCell id="1c1d494c118603dd-27" style="edgeStyle=orthogonalEdgeStyle;rounded=0;html=1;labelBackgroundColor=none;startArrow=none;startFill=0;startSize=5;endArrow=classicThin;endFill=1;endSize=5;jettySize=auto;orthogonalLoop=1;strokeWidth=1;fontFamily=Verdana;fontSize=12" parent="1c1d494c118603dd-2" source="60571a20871a0731-4" target="60571a20871a0731-8" edge="1">
          <mxGeometry relative="1" as="geometry" />
        </mxCell>
        <mxCell id="JhqDvdCC9edIugUEykBn-9" style="edgeStyle=orthogonalEdgeStyle;rounded=0;orthogonalLoop=1;jettySize=auto;html=1;entryX=0.5;entryY=0;entryDx=0;entryDy=0;" edge="1" parent="1c1d494c118603dd-2" source="-5eMyqwQZXIG0-muHsYF-9" target="-5eMyqwQZXIG0-muHsYF-26">
          <mxGeometry relative="1" as="geometry" />
        </mxCell>
        <mxCell id="-5eMyqwQZXIG0-muHsYF-9" value="Chọn nạp tiền điện thoại" style="rounded=1;whiteSpace=wrap;html=1;shadow=0;comic=0;labelBackgroundColor=none;strokeWidth=1;fontFamily=Verdana;fontSize=12;align=center;arcSize=50;" parent="1c1d494c118603dd-2" vertex="1">
          <mxGeometry x="105" y="130" width="100" height="30" as="geometry" />
        </mxCell>
        <mxCell id="JhqDvdCC9edIugUEykBn-3" value="" style="edgeStyle=orthogonalEdgeStyle;rounded=0;orthogonalLoop=1;jettySize=auto;html=1;" edge="1" parent="1c1d494c118603dd-2" source="-5eMyqwQZXIG0-muHsYF-26" target="JhqDvdCC9edIugUEykBn-2">
          <mxGeometry relative="1" as="geometry" />
        </mxCell>
        <mxCell id="-5eMyqwQZXIG0-muHsYF-26" value="Nhập số điện thoại" style="rounded=1;whiteSpace=wrap;html=1;shadow=0;comic=0;labelBackgroundColor=none;strokeWidth=1;fontFamily=Verdana;fontSize=12;align=center;arcSize=50;" parent="1c1d494c118603dd-2" vertex="1">
          <mxGeometry x="105" y="200" width="100" height="30" as="geometry" />
        </mxCell>
        <mxCell id="-5eMyqwQZXIG0-muHsYF-126" value="Nhập mã pin" style="rounded=1;whiteSpace=wrap;html=1;shadow=0;comic=0;labelBackgroundColor=none;strokeWidth=1;fontFamily=Verdana;fontSize=12;align=center;arcSize=50;" parent="1c1d494c118603dd-2" vertex="1">
          <mxGeometry x="150" y="460" width="110" height="30" as="geometry" />
        </mxCell>
        <mxCell id="JhqDvdCC9edIugUEykBn-11" value="" style="edgeStyle=orthogonalEdgeStyle;rounded=0;orthogonalLoop=1;jettySize=auto;html=1;" edge="1" parent="1c1d494c118603dd-2" source="JhqDvdCC9edIugUEykBn-2" target="JhqDvdCC9edIugUEykBn-10">
          <mxGeometry relative="1" as="geometry" />
        </mxCell>
        <mxCell id="JhqDvdCC9edIugUEykBn-2" value="Chọn số tiền" style="rounded=1;whiteSpace=wrap;html=1;shadow=0;comic=0;labelBackgroundColor=none;strokeWidth=1;fontFamily=Verdana;fontSize=12;align=center;arcSize=50;" vertex="1" parent="1c1d494c118603dd-2">
          <mxGeometry x="105" y="270" width="100" height="30" as="geometry" />
        </mxCell>
        <mxCell id="JhqDvdCC9edIugUEykBn-10" value="Nạp tiền" style="rounded=1;whiteSpace=wrap;html=1;shadow=0;comic=0;labelBackgroundColor=none;strokeWidth=1;fontFamily=Verdana;fontSize=12;align=center;arcSize=50;" vertex="1" parent="1c1d494c118603dd-2">
          <mxGeometry x="105" y="330" width="100" height="30" as="geometry" />
        </mxCell>
        <mxCell id="-5eMyqwQZXIG0-muHsYF-135" style="edgeStyle=orthogonalEdgeStyle;rounded=0;orthogonalLoop=1;jettySize=auto;html=1;entryX=1;entryY=0.5;entryDx=0;entryDy=0;" parent="1c1d494c118603dd-1" source="-5eMyqwQZXIG0-muHsYF-132" target="-5eMyqwQZXIG0-muHsYF-126" edge="1">
          <mxGeometry relative="1" as="geometry" />
        </mxCell>
        <mxCell id="1c1d494c118603dd-3" value="&lt;b&gt;Hệ thống&lt;/b&gt;" style="swimlane;html=1;startSize=20;fontStyle=0" parent="1c1d494c118603dd-1" vertex="1">
          <mxGeometry x="400" y="20" width="411.5" height="1050" as="geometry">
            <mxRectangle x="278.5" y="20" width="40" height="1050" as="alternateBounds" />
          </mxGeometry>
        </mxCell>
        <mxCell id="1c1d494c118603dd-52" style="edgeStyle=none;rounded=0;html=1;dashed=1;labelBackgroundColor=none;startArrow=none;startFill=0;startSize=5;endArrow=oval;endFill=0;endSize=5;jettySize=auto;orthogonalLoop=1;strokeWidth=1;fontFamily=Verdana;fontSize=12" parent="1c1d494c118603dd-3" edge="1">
          <mxGeometry relative="1" as="geometry">
            <mxPoint x="86.20588235294122" y="850" as="sourcePoint" />
            <mxPoint x="86.20588235294122" y="850" as="targetPoint" />
          </mxGeometry>
        </mxCell>
        <mxCell id="-5eMyqwQZXIG0-muHsYF-124" style="edgeStyle=orthogonalEdgeStyle;rounded=0;orthogonalLoop=1;jettySize=auto;html=1;entryX=0.5;entryY=0;entryDx=0;entryDy=0;" parent="1c1d494c118603dd-3" source="-5eMyqwQZXIG0-muHsYF-115" target="-5eMyqwQZXIG0-muHsYF-120" edge="1">
          <mxGeometry relative="1" as="geometry" />
        </mxCell>
        <mxCell id="-5eMyqwQZXIG0-muHsYF-115" value="Kiểm tra số dư" style="rounded=1;whiteSpace=wrap;html=1;shadow=0;comic=0;labelBackgroundColor=none;strokeWidth=1;fontFamily=Verdana;fontSize=12;align=center;arcSize=50;" parent="1c1d494c118603dd-3" vertex="1">
          <mxGeometry x="140" y="220" width="110" height="30" as="geometry" />
        </mxCell>
        <mxCell id="JhqDvdCC9edIugUEykBn-16" style="edgeStyle=orthogonalEdgeStyle;rounded=0;orthogonalLoop=1;jettySize=auto;html=1;entryX=0.5;entryY=0;entryDx=0;entryDy=0;" edge="1" parent="1c1d494c118603dd-3" source="-5eMyqwQZXIG0-muHsYF-120" target="-5eMyqwQZXIG0-muHsYF-132">
          <mxGeometry relative="1" as="geometry" />
        </mxCell>
        <mxCell id="JhqDvdCC9edIugUEykBn-21" value="Đủ" style="edgeLabel;html=1;align=center;verticalAlign=middle;resizable=0;points=[];" vertex="1" connectable="0" parent="JhqDvdCC9edIugUEykBn-16">
          <mxGeometry x="-0.411" y="-1" relative="1" as="geometry">
            <mxPoint as="offset" />
          </mxGeometry>
        </mxCell>
        <mxCell id="JhqDvdCC9edIugUEykBn-19" style="edgeStyle=orthogonalEdgeStyle;rounded=0;orthogonalLoop=1;jettySize=auto;html=1;entryX=0.75;entryY=0;entryDx=0;entryDy=0;" edge="1" parent="1c1d494c118603dd-3" source="-5eMyqwQZXIG0-muHsYF-120" target="-5eMyqwQZXIG0-muHsYF-141">
          <mxGeometry relative="1" as="geometry" />
        </mxCell>
        <mxCell id="JhqDvdCC9edIugUEykBn-20" value="Không đủ" style="edgeLabel;html=1;align=center;verticalAlign=middle;resizable=0;points=[];" vertex="1" connectable="0" parent="JhqDvdCC9edIugUEykBn-19">
          <mxGeometry x="-0.4101" y="4" relative="1" as="geometry">
            <mxPoint as="offset" />
          </mxGeometry>
        </mxCell>
        <mxCell id="-5eMyqwQZXIG0-muHsYF-120" value="" style="rhombus;whiteSpace=wrap;html=1;" parent="1c1d494c118603dd-3" vertex="1">
          <mxGeometry x="180" y="340" width="30" height="30" as="geometry" />
        </mxCell>
        <mxCell id="-5eMyqwQZXIG0-muHsYF-132" value="Yêu cầu xác nhận mã pin" style="rounded=1;whiteSpace=wrap;html=1;shadow=0;comic=0;labelBackgroundColor=none;strokeWidth=1;fontFamily=Verdana;fontSize=12;align=center;arcSize=50;" parent="1c1d494c118603dd-3" vertex="1">
          <mxGeometry x="10.75" y="430" width="118.5" height="40" as="geometry" />
        </mxCell>
        <mxCell id="-5eMyqwQZXIG0-muHsYF-145" style="edgeStyle=orthogonalEdgeStyle;rounded=0;orthogonalLoop=1;jettySize=auto;html=1;entryX=0.5;entryY=0;entryDx=0;entryDy=0;" parent="1c1d494c118603dd-3" source="-5eMyqwQZXIG0-muHsYF-137" target="-5eMyqwQZXIG0-muHsYF-142" edge="1">
          <mxGeometry relative="1" as="geometry" />
        </mxCell>
        <mxCell id="-5eMyqwQZXIG0-muHsYF-137" value="Xác nhận mã pin" style="rounded=1;whiteSpace=wrap;html=1;shadow=0;comic=0;labelBackgroundColor=none;strokeWidth=1;fontFamily=Verdana;fontSize=12;align=center;arcSize=50;" parent="1c1d494c118603dd-3" vertex="1">
          <mxGeometry x="146.5" y="510" width="118.5" height="40" as="geometry" />
        </mxCell>
        <mxCell id="-5eMyqwQZXIG0-muHsYF-141" value="Thông báo lỗi" style="rounded=1;whiteSpace=wrap;html=1;shadow=0;comic=0;labelBackgroundColor=none;strokeWidth=1;fontFamily=Verdana;fontSize=12;align=center;arcSize=50;" parent="1c1d494c118603dd-3" vertex="1">
          <mxGeometry x="250" y="430" width="118.5" height="40" as="geometry" />
        </mxCell>
        <mxCell id="-5eMyqwQZXIG0-muHsYF-147" style="edgeStyle=orthogonalEdgeStyle;rounded=0;orthogonalLoop=1;jettySize=auto;html=1;entryX=0.5;entryY=0;entryDx=0;entryDy=0;" parent="1c1d494c118603dd-3" source="-5eMyqwQZXIG0-muHsYF-142" target="-5eMyqwQZXIG0-muHsYF-154" edge="1">
          <mxGeometry relative="1" as="geometry">
            <mxPoint x="139.62499999999977" y="849.9999999999998" as="targetPoint" />
          </mxGeometry>
        </mxCell>
        <mxCell id="-5eMyqwQZXIG0-muHsYF-148" value="Đúng" style="edgeLabel;html=1;align=center;verticalAlign=middle;resizable=0;points=[];" parent="-5eMyqwQZXIG0-muHsYF-147" vertex="1" connectable="0">
          <mxGeometry x="-0.0053" y="2" relative="1" as="geometry">
            <mxPoint x="1" as="offset" />
          </mxGeometry>
        </mxCell>
        <mxCell id="JhqDvdCC9edIugUEykBn-27" style="edgeStyle=orthogonalEdgeStyle;rounded=0;orthogonalLoop=1;jettySize=auto;html=1;entryX=0.5;entryY=0;entryDx=0;entryDy=0;" edge="1" parent="1c1d494c118603dd-3" source="-5eMyqwQZXIG0-muHsYF-142" target="-5eMyqwQZXIG0-muHsYF-162">
          <mxGeometry relative="1" as="geometry" />
        </mxCell>
        <mxCell id="JhqDvdCC9edIugUEykBn-28" value="Sai" style="edgeLabel;html=1;align=center;verticalAlign=middle;resizable=0;points=[];" vertex="1" connectable="0" parent="JhqDvdCC9edIugUEykBn-27">
          <mxGeometry x="-0.3955" y="-5" relative="1" as="geometry">
            <mxPoint as="offset" />
          </mxGeometry>
        </mxCell>
        <mxCell id="-5eMyqwQZXIG0-muHsYF-142" value="" style="rhombus;whiteSpace=wrap;html=1;" parent="1c1d494c118603dd-3" vertex="1">
          <mxGeometry x="190.75" y="600" width="30" height="30" as="geometry" />
        </mxCell>
        <mxCell id="60571a20871a0731-5" value="" style="shape=mxgraph.bpmn.shape;html=1;verticalLabelPosition=bottom;labelBackgroundColor=#ffffff;verticalAlign=top;perimeter=ellipsePerimeter;outline=end;symbol=terminate;rounded=0;shadow=0;comic=0;strokeWidth=1;fontFamily=Verdana;fontSize=12;align=center;" parent="1c1d494c118603dd-3" vertex="1">
          <mxGeometry x="175" y="880" width="40" height="40" as="geometry" />
        </mxCell>
        <mxCell id="-5eMyqwQZXIG0-muHsYF-154" value="Thành công" style="rounded=1;whiteSpace=wrap;html=1;shadow=0;comic=0;labelBackgroundColor=none;strokeWidth=1;fontFamily=Verdana;fontSize=12;align=center;arcSize=50;" parent="1c1d494c118603dd-3" vertex="1">
          <mxGeometry x="220.75" y="680" width="118.5" height="40" as="geometry" />
        </mxCell>
        <mxCell id="JhqDvdCC9edIugUEykBn-31" style="edgeStyle=orthogonalEdgeStyle;rounded=0;orthogonalLoop=1;jettySize=auto;html=1;entryX=0.25;entryY=0;entryDx=0;entryDy=0;" edge="1" parent="1c1d494c118603dd-3" source="-5eMyqwQZXIG0-muHsYF-162" target="-5eMyqwQZXIG0-muHsYF-166">
          <mxGeometry relative="1" as="geometry" />
        </mxCell>
        <mxCell id="-5eMyqwQZXIG0-muHsYF-162" value="Sai mã pin" style="rounded=1;whiteSpace=wrap;html=1;shadow=0;comic=0;labelBackgroundColor=none;strokeWidth=1;fontFamily=Verdana;fontSize=12;align=center;arcSize=50;" parent="1c1d494c118603dd-3" vertex="1">
          <mxGeometry x="18.5" y="680" width="91.5" height="40" as="geometry" />
        </mxCell>
        <mxCell id="JhqDvdCC9edIugUEykBn-29" style="edgeStyle=orthogonalEdgeStyle;rounded=0;orthogonalLoop=1;jettySize=auto;html=1;entryX=0.5;entryY=0;entryDx=0;entryDy=0;" edge="1" parent="1c1d494c118603dd-3" source="-5eMyqwQZXIG0-muHsYF-166" target="60571a20871a0731-5">
          <mxGeometry relative="1" as="geometry" />
        </mxCell>
        <mxCell id="-5eMyqwQZXIG0-muHsYF-166" value="" style="whiteSpace=wrap;html=1;rounded=0;shadow=0;comic=0;labelBackgroundColor=none;strokeWidth=1;fillColor=#000000;fontFamily=Verdana;fontSize=12;align=center;rotation=0;" parent="1c1d494c118603dd-3" vertex="1">
          <mxGeometry x="121.5" y="810" width="147" height="10" as="geometry" />
        </mxCell>
        <mxCell id="JhqDvdCC9edIugUEykBn-4" value="Hiện thị màn hình nạp tiền điện thoại" style="rounded=1;whiteSpace=wrap;html=1;shadow=0;comic=0;labelBackgroundColor=none;strokeWidth=1;fontFamily=Verdana;fontSize=12;align=center;arcSize=50;" vertex="1" parent="1c1d494c118603dd-3">
          <mxGeometry x="120" y="80" width="130" height="50" as="geometry" />
        </mxCell>
        <mxCell id="JhqDvdCC9edIugUEykBn-30" style="edgeStyle=orthogonalEdgeStyle;rounded=0;orthogonalLoop=1;jettySize=auto;html=1;entryX=0.588;entryY=-0.394;entryDx=0;entryDy=0;entryPerimeter=0;" edge="1" parent="1c1d494c118603dd-3" source="-5eMyqwQZXIG0-muHsYF-154" target="-5eMyqwQZXIG0-muHsYF-166">
          <mxGeometry relative="1" as="geometry" />
        </mxCell>
        <mxCell id="JhqDvdCC9edIugUEykBn-33" style="edgeStyle=orthogonalEdgeStyle;rounded=0;orthogonalLoop=1;jettySize=auto;html=1;entryX=0.874;entryY=0;entryDx=0;entryDy=0;entryPerimeter=0;" edge="1" parent="1c1d494c118603dd-3" source="-5eMyqwQZXIG0-muHsYF-141" target="-5eMyqwQZXIG0-muHsYF-166">
          <mxGeometry relative="1" as="geometry">
            <Array as="points">
              <mxPoint x="370" y="450" />
              <mxPoint x="370" y="790" />
              <mxPoint x="250" y="790" />
            </Array>
          </mxGeometry>
        </mxCell>
        <mxCell id="JhqDvdCC9edIugUEykBn-6" style="edgeStyle=orthogonalEdgeStyle;rounded=0;orthogonalLoop=1;jettySize=auto;html=1;entryX=0;entryY=0.5;entryDx=0;entryDy=0;" edge="1" parent="1c1d494c118603dd-1" source="60571a20871a0731-8" target="JhqDvdCC9edIugUEykBn-4">
          <mxGeometry relative="1" as="geometry" />
        </mxCell>
        <mxCell id="JhqDvdCC9edIugUEykBn-7" style="edgeStyle=orthogonalEdgeStyle;rounded=0;orthogonalLoop=1;jettySize=auto;html=1;entryX=1;entryY=0.75;entryDx=0;entryDy=0;" edge="1" parent="1c1d494c118603dd-1" source="JhqDvdCC9edIugUEykBn-4" target="-5eMyqwQZXIG0-muHsYF-9">
          <mxGeometry relative="1" as="geometry">
            <Array as="points">
              <mxPoint x="585" y="173" />
              <mxPoint x="363" y="173" />
            </Array>
          </mxGeometry>
        </mxCell>
        <mxCell id="JhqDvdCC9edIugUEykBn-22" style="edgeStyle=orthogonalEdgeStyle;rounded=0;orthogonalLoop=1;jettySize=auto;html=1;entryX=0;entryY=0.5;entryDx=0;entryDy=0;" edge="1" parent="1c1d494c118603dd-1" source="JhqDvdCC9edIugUEykBn-10" target="-5eMyqwQZXIG0-muHsYF-115">
          <mxGeometry relative="1" as="geometry" />
        </mxCell>
        <mxCell id="JhqDvdCC9edIugUEykBn-24" style="edgeStyle=orthogonalEdgeStyle;rounded=0;orthogonalLoop=1;jettySize=auto;html=1;entryX=0;entryY=0.75;entryDx=0;entryDy=0;" edge="1" parent="1c1d494c118603dd-1" source="-5eMyqwQZXIG0-muHsYF-126" target="-5eMyqwQZXIG0-muHsYF-137">
          <mxGeometry relative="1" as="geometry">
            <Array as="points">
              <mxPoint x="205" y="560" />
            </Array>
          </mxGeometry>
        </mxCell>
      </root>
    </mxGraphModel>
  </diagram>
</mxfile>
